<svg width="11px" height="12px" viewBox="0 0 11 12" version="1.1" xmlns:xlink="http://www.w3.org/1999/xlink" xmlns="http://www.w3.org/2000/svg">
                    <path d="M0 0.999Q0 0.900607 0.0191955 0.804104Q0.038391 0.707602 0.0760443 0.616699Q0.113698 0.525796 0.168362 0.443985Q0.223026 0.362174 0.2926 0.2926Q0.362174 0.223026 0.443985 0.168362Q0.525796 0.113698 0.616699 0.0760443Q0.707602 0.038391 0.804104 0.0191955Q0.900607 0 0.999 0L10.001 0Q10.0994 0 10.1959 0.0191955Q10.2924 0.038391 10.3833 0.0760443Q10.4742 0.113698 10.556 0.168362Q10.6378 0.223026 10.7074 0.2926Q10.777 0.362174 10.8316 0.443985Q10.8863 0.525796 10.924 0.616699Q10.9616 0.707602 10.9808 0.804104Q11 0.900607 11 0.999L11 1.001Q11 1.09939 10.9808 1.19589Q10.9616 1.2924 10.924 1.3833Q10.8863 1.4742 10.8316 1.55601Q10.777 1.63783 10.7074 1.7074Q10.6378 1.77697 10.556 1.83164Q10.4742 1.8863 10.3833 1.92396Q10.2924 1.96161 10.1959 1.9808Q10.0994 2 10.001 2L0.999 2Q0.900607 2 0.804104 1.9808Q0.707602 1.96161 0.616699 1.92396Q0.525796 1.8863 0.443985 1.83164Q0.362174 1.77697 0.2926 1.7074Q0.223026 1.63783 0.168362 1.55601Q0.113698 1.4742 0.0760443 1.3833Q0.038391 1.2924 0.0191955 1.19589Q0 1.09939 0 1.001L0 0.999ZM0 5.999Q0 5.90061 0.0191955 5.8041Q0.038391 5.7076 0.0760443 5.6167Q0.113698 5.5258 0.168362 5.44399Q0.223026 5.36217 0.2926 5.2926Q0.362174 5.22303 0.443985 5.16836Q0.525796 5.1137 0.616699 5.07604Q0.707602 5.03839 0.804104 5.0192Q0.900607 5 0.999 5L10.001 5Q10.0994 5 10.1959 5.0192Q10.2924 5.03839 10.3833 5.07604Q10.4742 5.1137 10.556 5.16836Q10.6378 5.22303 10.7074 5.2926Q10.777 5.36217 10.8316 5.44399Q10.8863 5.5258 10.924 5.6167Q10.9616 5.7076 10.9808 5.8041Q11 5.90061 11 5.999L11 6.001Q11 6.09939 10.9808 6.19589Q10.9616 6.2924 10.924 6.3833Q10.8863 6.4742 10.8316 6.55601Q10.777 6.63782 10.7074 6.7074Q10.6378 6.77697 10.556 6.83164Q10.4742 6.8863 10.3833 6.92395Q10.2924 6.96161 10.1959 6.9808Q10.0994 7 10.001 7L0.999 7Q0.900607 7 0.804104 6.9808Q0.707602 6.96161 0.616699 6.92395Q0.525796 6.8863 0.443985 6.83164Q0.362174 6.77697 0.2926 6.7074Q0.223026 6.63782 0.168362 6.55601Q0.113698 6.4742 0.0760443 6.3833Q0.038391 6.2924 0.0191955 6.19589Q0 6.09939 0 6.001L0 5.999ZM0 10.999Q0 10.9006 0.0191955 10.8041Q0.038391 10.7076 0.0760443 10.6167Q0.113698 10.5258 0.168362 10.444Q0.223026 10.3622 0.2926 10.2926Q0.362174 10.223 0.443985 10.1684Q0.525796 10.1137 0.616699 10.076Q0.707602 10.0384 0.804104 10.0192Q0.900607 10 0.999 10L10.001 10Q10.0994 10 10.1959 10.0192Q10.2924 10.0384 10.3833 10.076Q10.4742 10.1137 10.556 10.1684Q10.6378 10.223 10.7074 10.2926Q10.777 10.3622 10.8316 10.444Q10.8863 10.5258 10.924 10.6167Q10.9616 10.7076 10.9808 10.8041Q11 10.9006 11 10.999L11 11.001Q11 11.0994 10.9808 11.1959Q10.9616 11.2924 10.924 11.3833Q10.8863 11.4742 10.8316 11.556Q10.777 11.6378 10.7074 11.7074Q10.6378 11.777 10.556 11.8316Q10.4742 11.8863 10.3833 11.924Q10.2924 11.9616 10.1959 11.9808Q10.0994 12 10.001 12L0.999 12Q0.900607 12 0.804104 11.9808Q0.707602 11.9616 0.616699 11.924Q0.525796 11.8863 0.443985 11.8316Q0.362174 11.777 0.2926 11.7074Q0.223026 11.6378 0.168362 11.556Q0.113698 11.4742 0.0760443 11.3833Q0.038391 11.2924 0.0191955 11.1959Q0 11.0994 0 11.001L0 10.999Z" id="Combined-Shape" fill="#A6B7D4" fill-rule="evenodd" stroke="none" />
                </svg>